<svg width="14" height="20" viewBox="0 0 14 20" fill="none" xmlns="http://www.w3.org/2000/svg">
<path d="M0 19.5676V0.216198H6.70257C7.53798 0.210424 8.36748 0.356677 9.15054 0.647812C9.89243 0.921593 10.5756 1.33379 11.1637 1.86249C11.7612 2.4057 12.2363 3.06984 12.5574 3.81079C12.8785 4.55174 13.0383 5.35255 13.0262 6.16C13.0346 6.96286 12.873 7.75841 12.552 8.49435C12.231 9.23029 11.7578 9.88996 11.1637 10.43C10.5757 10.9589 9.89254 11.3711 9.15054 11.6447C8.36804 11.9359 7.53911 12.0824 6.70419 12.0771H3.05369V19.5635L0 19.5676ZM6.78355 9.16186C7.24674 9.17085 7.70681 9.08429 8.13507 8.90759C8.51251 8.74953 8.85304 8.51487 9.13515 8.21847C9.40158 7.93659 9.61231 7.60689 9.75626 7.24673C9.89699 6.90357 9.97039 6.53655 9.97247 6.16567C9.97004 5.39418 9.67012 4.65337 9.13515 4.09748C8.82929 3.78664 8.46334 3.54133 8.05961 3.37649C7.65587 3.21166 7.2228 3.13075 6.78678 3.1387H3.05369V9.1651L6.78355 9.16186Z" fill="#191919"/>
</svg>
